<?xml version="1.0" encoding="UTF-8" standalone="no"?>
<!-- Created with Inkscape (http://www.inkscape.org/) -->

<svg
   xmlns:dc="http://purl.org/dc/elements/1.1/"
   xmlns:cc="http://creativecommons.org/ns#"
   xmlns:rdf="http://www.w3.org/1999/02/22-rdf-syntax-ns#"
   xmlns:svg="http://www.w3.org/2000/svg"
   xmlns="http://www.w3.org/2000/svg"
   xmlns:sodipodi="http://sodipodi.sourceforge.net/DTD/sodipodi-0.dtd"
   xmlns:inkscape="http://www.inkscape.org/namespaces/inkscape"
   width="6.7735057mm"
   height="3.8695755mm"
   viewBox="0 0 24.000611 13.711094"
   id="svg2"
   version="1.1"
   inkscape:version="0.91 r13725"
   sodipodi:docname="docker-symbolic2.svg">
  <defs
     id="defs4" />
  <sodipodi:namedview
     id="base"
     pagecolor="#ffffff"
     bordercolor="#666666"
     borderopacity="1.0"
     inkscape:pageopacity="0.0"
     inkscape:pageshadow="2"
     inkscape:zoom="28.499276"
     inkscape:cx="10.93867"
     inkscape:cy="6.8555425"
     inkscape:document-units="px"
     inkscape:current-layer="layer1"
     showgrid="false"
     inkscape:window-width="1052"
     inkscape:window-height="742"
     inkscape:window-x="252"
     inkscape:window-y="257"
     inkscape:window-maximized="0"
     fit-margin-top="0"
     fit-margin-left="0"
     fit-margin-right="0"
     fit-margin-bottom="0" />
  <metadata
     id="metadata7">
    <rdf:RDF>
      <cc:Work
         rdf:about="">
        <dc:format>image/svg+xml</dc:format>
        <dc:type
           rdf:resource="http://purl.org/dc/dcmitype/StillImage" />
        <dc:title></dc:title>
      </cc:Work>
    </rdf:RDF>
  </metadata>
  <g
     inkscape:label="Calque 1"
     inkscape:groupmode="layer"
     id="layer1"
     transform="translate(-362.99969,-525.50666)">
    <g
       id="g3337"
       transform="translate(362.99969,520.36167)"
       style="fill:#999999">
      <path
         id="path3339"
         d="m 11.853,11.549 c 0.091,0.008 0.085,-0.068 0.086,-0.128 0.002,-0.21 10e-4,-0.42 10e-4,-0.629 0,-0.223 0.001,-0.447 -10e-4,-0.67 0,-0.054 10e-4,-0.118 -0.075,-0.118 -0.076,0 -0.075,0.063 -0.075,0.118 -10e-4,0.433 -10e-4,0.866 0,1.3 -10e-4,0.052 -0.009,0.121 0.064,0.127 l 0,0 z"
         inkscape:connector-curvature="0"
         style="fill:#999999" />
      <path
         id="path3341"
         d="m 14.589,11.553 c 0.084,-0.007 0.076,-0.081 0.076,-0.142 0.001,-0.209 0,-0.42 0,-0.63 0,-0.217 0,-0.434 0,-0.651 0,-0.063 -0.003,-0.132 -0.088,-0.131 -0.083,0 -0.066,0.072 -0.066,0.122 -0.002,0.434 -0.002,0.868 0,1.302 0,0.056 -0.022,0.139 0.078,0.13 l 0,0 z"
         inkscape:connector-curvature="0"
         style="fill:#999999" />
      <path
         id="path3343"
         d="m 12.989,11.554 c 0.073,0.003 0.088,-0.052 0.088,-0.111 0,-0.447 0,-0.894 0,-1.341 0,-0.063 -0.025,-0.11 -0.095,-0.103 -0.066,0.006 -0.058,0.064 -0.059,0.11 -10e-4,0.223 -10e-4,0.447 -10e-4,0.67 0,0.217 -0.001,0.434 10e-4,0.65 0.002,0.051 -0.018,0.121 0.066,0.125 l 0,0 z"
         inkscape:connector-curvature="0"
         style="fill:#999999" />
      <path
         id="path3345"
         d="m 12.428,11.553 c 0.074,-0.001 0.08,-0.062 0.08,-0.118 0,-0.44 0,-0.88 0,-1.321 0,-0.057 -0.01,-0.113 -0.084,-0.114 -0.084,0 -0.069,0.068 -0.069,0.119 -0.002,0.217 -0.001,0.434 -0.001,0.65 0,0.216 -10e-4,0.434 0.001,0.65 0,0.055 -0.027,0.136 0.073,0.134 z"
         inkscape:connector-curvature="0"
         style="fill:#999999" />
      <path
         id="path3347"
         d="m 11.916,7.941 c 0,-0.047 0,-0.104 -0.067,-0.101 -0.067,0.004 -0.059,0.064 -0.059,0.11 0,0.217 0,0.433 0,0.65 0,0.217 -0.002,0.434 0,0.65 0.001,0.049 -0.016,0.122 0.067,0.121 0.066,-0.002 0.059,-0.064 0.059,-0.109 0.002,-0.44 0.002,-0.881 0,-1.321 z"
         inkscape:connector-curvature="0"
         style="fill:#999999" />
      <path
         id="path3349"
         d="m 12.7,11.553 c 0.086,0.005 0.091,-0.063 0.091,-0.126 0,-0.434 0,-0.867 0,-1.301 0,-0.064 -0.005,-0.131 -0.091,-0.126 -0.081,0.005 -0.062,0.077 -0.062,0.126 -0.003,0.217 -0.002,0.434 -0.002,0.65 0,0.216 0,0.434 0.002,0.65 10e-4,0.05 -0.019,0.121 0.062,0.127 l 0,0 z"
         inkscape:connector-curvature="0"
         style="fill:#999999" />
      <path
         id="path3351"
         d="m 12.067,10.773 c 0,0.217 0,0.434 10e-4,0.65 0.001,0.05 -0.02,0.122 0.059,0.129 0.085,0.009 0.096,-0.057 0.096,-0.123 0,-0.434 0,-0.867 0,-1.301 0,-0.063 -0.002,-0.134 -0.089,-0.129 -0.096,0.006 -0.063,0.089 -0.064,0.143 -0.005,0.21 -0.003,0.421 -0.003,0.631 l 0,0 z"
         inkscape:connector-curvature="0"
         style="fill:#999999" />
      <path
         id="path3353"
         d="m 14.796,11.438 c 0,0.051 -0.013,0.119 0.07,0.117 0.072,-10e-4 0.084,-0.059 0.084,-0.116 0.001,-0.441 0.001,-0.881 0,-1.322 0,-0.057 -0.01,-0.115 -0.082,-0.118 -0.084,-0.003 -0.072,0.064 -0.072,0.116 -0.002,0.217 -10e-4,0.434 -10e-4,0.651 0,0.224 -10e-4,0.447 10e-4,0.672 z"
         inkscape:connector-curvature="0"
         style="fill:#999999" />
      <path
         id="path3355"
         d="M 9.689,9.396 C 9.776,9.401 9.78,9.333 9.78,9.27 9.78,8.831 9.78,8.391 9.779,7.951 9.779,7.895 9.773,7.837 9.697,7.836 9.611,7.836 9.628,7.903 9.628,7.953 9.627,8.168 9.627,8.385 9.627,8.601 c 0,0.224 0,0.447 10e-4,0.67 10e-4,0.05 -0.019,0.121 0.061,0.125 l 0,0 z"
         inkscape:connector-curvature="0"
         style="fill:#999999" />
      <path
         id="path3357"
         d="m 10.762,9.291 c 0,0.047 -0.001,0.102 0.063,0.107 0.071,0.004 0.094,-0.043 0.094,-0.104 10e-4,-0.447 10e-4,-0.895 0,-1.341 0,-0.056 -0.006,-0.114 -0.081,-0.116 -0.083,-0.002 -0.076,0.062 -0.076,0.114 -0.001,0.223 -0.001,0.447 -0.001,0.67 0,0.222 0,0.446 0.001,0.67 l 0,0 z"
         inkscape:connector-curvature="0"
         style="fill:#999999" />
      <path
         id="path3359"
         d="m 9.688,9.999 c -0.079,0.007 -0.06,0.078 -0.061,0.128 -0.001,0.217 0,0.434 0,0.651 0,0.217 -0.001,0.434 0,0.65 10e-4,0.05 -0.018,0.122 0.064,0.125 0.085,0.003 0.091,-0.066 0.091,-0.129 0,-0.434 0,-0.868 0,-1.301 0,-0.065 -0.011,-0.131 -0.094,-0.124 z"
         inkscape:connector-curvature="0"
         style="fill:#999999" />
      <path
         id="path3361"
         d="m 9.975,9.396 c 0.087,0.005 0.091,-0.064 0.091,-0.127 0,-0.439 0.002,-0.879 0,-1.319 0,-0.056 -0.007,-0.114 -0.082,-0.115 -0.086,0 -0.07,0.067 -0.07,0.117 -10e-4,0.216 0,0.433 0,0.649 0,0.224 -10e-4,0.447 0,0.67 0.002,0.05 -0.02,0.121 0.063,0.125 l -0.002,0 z"
         inkscape:connector-curvature="0"
         style="fill:#999999" />
      <path
         id="path3363"
         d="m 10.481,9.289 c 0,0.046 -0.008,0.104 0.062,0.108 0.07,0.004 0.091,-0.044 0.091,-0.106 0,-0.446 0.002,-0.893 0,-1.338 0,-0.055 -0.004,-0.115 -0.08,-0.117 C 10.468,7.833 10.483,7.9 10.483,7.95 10.48,8.167 10.481,8.384 10.481,8.6 c 0,0.229 -10e-4,0.46 0,0.689 z"
         inkscape:connector-curvature="0"
         style="fill:#999999" />
      <path
         id="path3365"
         d="m 10.262,9.396 c 0.073,0.003 0.088,-0.052 0.088,-0.11 0,-0.446 0.001,-0.893 0,-1.338 0,-0.057 -0.01,-0.114 -0.085,-0.112 -0.087,10e-4 -0.067,0.071 -0.067,0.12 -0.002,0.216 -0.001,0.433 -0.001,0.649 0,0.223 0,0.447 0.001,0.669 0,0.05 -0.02,0.119 0.064,0.122 l 0,0 z"
         inkscape:connector-curvature="0"
         style="fill:#999999" />
      <path
         id="path3367"
         d="m 12.354,7.111 c 0,0.05 -0.02,0.122 0.06,0.128 0.084,0.008 0.094,-0.058 0.094,-0.124 0,-0.216 0,-0.434 0,-0.649 0,-0.216 0,-0.433 -0.002,-0.649 0,-0.059 0.01,-0.134 -0.078,-0.138 -0.101,-0.004 -0.072,0.079 -0.072,0.132 -0.003,0.434 -0.002,0.866 -0.002,1.3 l 0,0 z"
         inkscape:connector-curvature="0"
         style="fill:#999999" />
      <path
         id="path3369"
         d="m 13.335,7.955 c 0,-0.049 0.014,-0.121 -0.07,-0.115 -0.068,0.004 -0.055,0.067 -0.055,0.111 -0.001,0.208 0,0.417 0,0.627 0,0.222 -0.002,0.445 0,0.667 10e-4,0.049 -0.02,0.124 0.061,0.126 0.08,0.002 0.064,-0.073 0.064,-0.122 0.002,-0.431 0.002,-0.862 0,-1.294 l 0,0 z"
         inkscape:connector-curvature="0"
         style="fill:#999999" />
      <path
         id="path3371"
         d="m 14.026,11.55 c 0.075,-0.003 0.074,-0.065 0.074,-0.12 0.001,-0.217 0,-0.434 0,-0.651 0,-0.217 0.001,-0.434 0,-0.651 0,-0.054 0.004,-0.118 -0.07,-0.124 -0.076,-0.007 -0.086,0.052 -0.086,0.109 -0.001,0.441 -0.001,0.882 0,1.323 0,0.057 0.006,0.118 0.082,0.114 l 0,0 z"
         inkscape:connector-curvature="0"
         style="fill:#999999" />
      <path
         id="path3373"
         d="m 12.993,7.836 c -0.085,0 -0.068,0.068 -0.069,0.118 -0.002,0.216 -10e-4,0.433 -10e-4,0.649 0,0.224 -10e-4,0.447 10e-4,0.67 0.001,0.05 -0.019,0.119 0.063,0.125 0.07,0.005 0.09,-0.049 0.09,-0.108 10e-4,-0.447 10e-4,-0.893 0,-1.338 0,-0.057 -0.01,-0.114 -0.084,-0.116 l 0,0 z"
         inkscape:connector-curvature="0"
         style="fill:#999999" />
      <path
         id="path3375"
         d="m 12.14,7.836 c -0.086,0 -0.069,0.068 -0.07,0.118 -0.002,0.216 -10e-4,0.433 -10e-4,0.649 0,0.224 -0.001,0.447 10e-4,0.67 10e-4,0.05 -0.018,0.119 0.064,0.125 0.07,0.005 0.09,-0.049 0.09,-0.108 10e-4,-0.447 10e-4,-0.893 0,-1.338 0,-0.057 -0.01,-0.115 -0.084,-0.116 l 0,0 z"
         inkscape:connector-curvature="0"
         style="fill:#999999" />
      <path
         id="path3377"
         d="m 13.21,6.451 c 0,0.217 -0.002,0.434 0,0.649 10e-4,0.049 -0.02,0.122 0.067,0.118 0.067,-0.002 0.059,-0.064 0.059,-0.109 10e-4,-0.439 10e-4,-0.879 0,-1.319 0,-0.044 0.009,-0.105 -0.06,-0.108 -0.088,-0.003 -0.065,0.07 -0.066,0.119 -0.002,0.217 -0.001,0.434 0,0.65 l 0,0 z"
         inkscape:connector-curvature="0"
         style="fill:#999999" />
      <path
         id="path3379"
         d="m 12.428,7.837 c -0.1,-0.004 -0.071,0.08 -0.072,0.133 -0.003,0.21 -0.002,0.419 -0.002,0.629 0,0.223 -10e-4,0.446 0.001,0.669 10e-4,0.051 -0.02,0.122 0.06,0.129 0.084,0.007 0.095,-0.06 0.095,-0.124 0,-0.433 0,-0.865 0,-1.298 -10e-4,-0.06 0.004,-0.134 -0.082,-0.138 l 0,0 z"
         inkscape:connector-curvature="0"
         style="fill:#999999" />
      <path
         id="path3381"
         d="m 12.713,7.837 c -0.1,-0.004 -0.072,0.08 -0.072,0.133 -0.004,0.21 -0.002,0.419 -0.002,0.629 0,0.223 -0.002,0.446 0,0.669 0.002,0.051 -0.019,0.122 0.061,0.129 0.084,0.007 0.095,-0.06 0.095,-0.124 0,-0.433 0,-0.865 0,-1.298 -10e-4,-0.06 0.004,-0.134 -0.082,-0.138 l 0,0 z"
         inkscape:connector-curvature="0"
         style="fill:#999999" />
      <path
         id="path3383"
         d="m 13.21,11.425 c 0,0.044 -0.011,0.107 0.058,0.107 0.084,10e-4 0.067,-0.07 0.067,-0.119 0.002,-0.209 10e-4,-0.418 10e-4,-0.627 0,-0.216 10e-4,-0.431 -10e-4,-0.647 -0.001,-0.049 0.015,-0.121 -0.069,-0.117 -0.069,0.003 -0.056,0.065 -0.056,0.108 -0.002,0.432 -0.002,0.863 0,1.295 l 0,0 z"
         inkscape:connector-curvature="0"
         style="fill:#999999" />
      <path
         id="path3385"
         d="m 11.856,7.217 c 0.077,-10e-4 0.062,-0.076 0.062,-0.125 0.003,-0.208 0.001,-0.418 0.001,-0.628 0,-0.222 0,-0.445 -0.001,-0.668 0,-0.044 0.011,-0.106 -0.057,-0.111 C 11.776,5.678 11.79,5.75 11.79,5.8 c -0.002,0.431 -0.002,0.863 0,1.295 0,0.049 -0.016,0.124 0.064,0.122 l 0.002,0 z"
         inkscape:connector-curvature="0"
         style="fill:#999999" />
      <path
         id="path3387"
         d="m 12.069,7.109 c 0,0.055 -0.022,0.138 0.078,0.129 0.085,-0.007 0.074,-0.082 0.074,-0.141 0.002,-0.21 10e-4,-0.419 0,-0.628 0,-0.217 10e-4,-0.434 -10e-4,-0.649 0,-0.059 0.01,-0.134 -0.076,-0.139 -0.103,-0.007 -0.075,0.077 -0.075,0.131 -0.002,0.432 -0.002,0.864 0,1.297 l 0,0 z"
         inkscape:connector-curvature="0"
         style="fill:#999999" />
      <path
         id="path3389"
         d="m 14.228,11.405 c 0,0.058 -0.034,0.155 0.08,0.147 0.099,-0.007 0.077,-0.094 0.077,-0.158 0.003,-0.203 10e-4,-0.404 10e-4,-0.607 0,-0.208 0,-0.418 -10e-4,-0.627 0,-0.064 0.02,-0.151 -0.08,-0.157 -0.113,-0.006 -0.077,0.09 -0.077,0.147 -0.003,0.417 -0.003,0.836 0,1.255 l 0,0 z"
         inkscape:connector-curvature="0"
         style="fill:#999999" />
      <path
         id="path3391"
         d="m 12.639,6.452 c 0,0.224 -0.002,0.447 0,0.67 0,0.05 -0.014,0.118 0.071,0.118 0.073,-0.001 0.081,-0.058 0.081,-0.115 10e-4,-0.439 10e-4,-0.878 0,-1.318 0,-0.062 -0.002,-0.131 -0.089,-0.126 -0.085,0.004 -0.062,0.076 -0.062,0.125 -0.004,0.216 -0.002,0.433 -0.002,0.649 l 0,-0.003 z"
         inkscape:connector-curvature="0"
         style="fill:#999999" />
      <path
         id="path3393"
         d="m 12.923,6.459 c 0,0.216 -10e-4,0.433 10e-4,0.649 0.001,0.055 -0.023,0.136 0.077,0.13 0.073,-0.004 0.075,-0.065 0.075,-0.121 0,-0.439 10e-4,-0.878 -0.001,-1.318 0,-0.054 -0.002,-0.117 -0.076,-0.12 -0.102,-0.005 -0.074,0.077 -0.075,0.131 -0.003,0.217 -0.002,0.434 -10e-4,0.649 l 0,0 z"
         inkscape:connector-curvature="0"
         style="fill:#999999" />
      <path
         id="path3395"
         d="m 9.975,9.999 c -0.081,0.005 -0.062,0.077 -0.062,0.126 -10e-4,0.217 -10e-4,0.434 -10e-4,0.651 0,0.217 0,0.434 10e-4,0.65 0,0.051 -0.019,0.122 0.062,0.127 0.084,0.005 0.093,-0.063 0.093,-0.126 0,-0.434 0,-0.868 0,-1.302 C 10.067,10.062 10.06,9.995 9.975,9.999 Z"
         inkscape:connector-curvature="0"
         style="fill:#999999" />
      <path
         id="path3397"
         d="m 11.048,9.248 c 0,0.049 -0.02,0.125 0.061,0.126 0.097,0.003 0.069,-0.083 0.069,-0.136 0.004,-0.21 0.002,-0.42 0.002,-0.63 0,-0.21 0.002,-0.421 -0.002,-0.631 0,-0.053 0.029,-0.139 -0.069,-0.137 -0.08,0.001 -0.061,0.077 -0.061,0.126 -0.002,0.427 -0.002,0.855 0,1.282 z"
         inkscape:connector-curvature="0"
         style="fill:#999999" />
      <path
         id="path3399"
         d="m 7.532,11.553 c 0.086,0.005 0.092,-0.063 0.092,-0.126 0,-0.434 0,-0.867 0,-1.301 C 7.624,10.062 7.618,9.995 7.532,10 7.451,10.005 7.47,10.077 7.47,10.126 c -0.002,0.217 -10e-4,0.434 -10e-4,0.65 0,0.216 -0.001,0.434 10e-4,0.65 0.001,0.05 -0.019,0.121 0.062,0.127 l 0,0 z"
         inkscape:connector-curvature="0"
         style="fill:#999999" />
      <path
         id="path3401"
         d="m 6.735,11.428 c 0,0.046 -0.003,0.105 0.066,0.102 0.067,-0.004 0.058,-0.064 0.058,-0.108 0.003,-0.216 0.002,-0.432 0.002,-0.649 0,-0.208 0.001,-0.418 -0.002,-0.627 0,-0.048 0.021,-0.123 -0.063,-0.121 -0.066,0 -0.06,0.062 -0.061,0.107 -0.001,0.433 -0.001,0.865 0,1.296 l 0,0 z"
         inkscape:connector-curvature="0"
         style="fill:#999999" />
      <path
         id="path3403"
         d="m 7.827,11.553 c 0.087,-0.003 0.082,-0.075 0.082,-0.136 0,-0.432 0,-0.863 0,-1.294 0,-0.065 -0.011,-0.129 -0.096,-0.123 -0.077,0.007 -0.063,0.075 -0.064,0.126 -0.002,0.216 -10e-4,0.431 -10e-4,0.648 0,0.216 -0.001,0.431 10e-4,0.647 0.001,0.056 -0.019,0.135 0.076,0.132 l 0.002,0 z"
         inkscape:connector-curvature="0"
         style="fill:#999999" />
      <path
         id="path3405"
         d="m 8.037,11.414 c 10e-4,0.05 -0.015,0.121 0.068,0.119 0.068,-10e-4 0.063,-0.062 0.063,-0.106 0.001,-0.432 0.001,-0.865 0,-1.297 0,-0.045 0.008,-0.105 -0.059,-0.108 -0.085,-0.004 -0.071,0.066 -0.071,0.116 -10e-4,0.209 -10e-4,0.419 -10e-4,0.629 0,0.215 -0.002,0.431 0,0.647 l 0,0 z"
         inkscape:connector-curvature="0"
         style="fill:#999999" />
      <path
         id="path3407"
         d="m 6.45,11.43 c 0,0.046 -0.001,0.104 0.068,0.099 0.068,-0.004 0.061,-0.063 0.061,-0.108 0.002,-0.21 0.001,-0.42 0.001,-0.628 0,-0.217 0.001,-0.434 -0.001,-0.649 -10e-4,-0.05 0.016,-0.122 -0.068,-0.119 -0.067,10e-4 -0.061,0.063 -0.062,0.107 0,0.433 0,0.866 0.001,1.298 l 0,0 z"
         inkscape:connector-curvature="0"
         style="fill:#999999" />
      <path
         id="path3409"
         d="m 8.606,11.416 c 0,0.051 -0.014,0.124 0.07,0.117 0.079,-0.006 0.06,-0.078 0.061,-0.128 0.002,-0.209 0,-0.419 0,-0.628 0,-0.209 0.002,-0.419 0,-0.629 -10e-4,-0.049 0.019,-0.121 -0.062,-0.126 -0.083,-0.006 -0.069,0.067 -0.069,0.117 -10e-4,0.426 -10e-4,0.851 0,1.277 z"
         inkscape:connector-curvature="0"
         style="fill:#999999" />
      <path
         id="path3411"
         d="m 8.321,10.773 c 0,0.217 -10e-4,0.433 0,0.649 0,0.044 -0.009,0.104 0.059,0.11 0.084,0.006 0.072,-0.064 0.072,-0.114 10e-4,-0.426 10e-4,-0.851 0,-1.277 0,-0.05 0.016,-0.123 -0.067,-0.12 -0.08,0.002 -0.063,0.075 -0.063,0.125 -0.002,0.209 0,0.419 0,0.629 l 0,-0.002 z"
         inkscape:connector-curvature="0"
         style="fill:#999999" />
      <path
         id="path3413"
         d="m 20.542,12.415 c 0.114,-0.351 0.307,-0.436 0.671,-0.444 1.222,-0.026 2.208,-0.491 2.756,-1.661 0.051,-0.108 0.047,-0.148 -0.062,-0.215 C 23.125,9.614 22.286,9.526 21.403,9.717 21.327,9.734 21.239,9.801 21.211,9.645 21.082,8.915 20.688,8.333 20.157,7.834 19.981,7.668 19.809,7.497 19.59,7.384 19.394,7.572 19.213,7.777 19.109,8.03 c -0.416,1.01 -0.416,2.004 0.153,2.962 0.066,0.111 0.036,0.146 -0.059,0.192 -0.249,0.124 -0.507,0.223 -0.772,0.307 -0.725,0.23 -1.473,0.192 -2.218,0.199 -0.15,0.001 -0.195,-0.036 -0.192,-0.19 C 16.03,10.896 16.015,10.292 16.03,9.689 16.035,9.5 15.973,9.468 15.802,9.471 15.253,9.481 14.703,9.476 14.154,9.474 13.824,9.473 13.87,9.512 13.869,9.199 13.867,7.91 13.867,6.622 13.871,5.333 c 0,-0.133 -0.022,-0.189 -0.175,-0.188 -0.752,0.008 -1.505,0.008 -2.259,0 -0.147,-10e-4 -0.179,0.048 -0.177,0.186 0.007,0.59 -0.005,1.18 0.008,1.77 C 11.272,7.283 11.22,7.323 11.043,7.323 9.74,7.314 8.439,7.32 7.137,7.314 6.973,7.313 6.937,7.362 6.939,7.518 6.948,8.114 6.939,8.711 6.947,9.309 6.948,9.441 6.911,9.48 6.777,9.479 6.18,9.471 5.583,9.479 4.986,9.471 4.833,9.469 4.778,9.501 4.781,9.668 c 0.011,0.617 0,1.234 0.006,1.852 0.002,0.132 -0.034,0.173 -0.168,0.17 C 4.11,11.682 3.602,11.689 3.094,11.685 2.993,11.685 2.93,11.694 2.92,11.818 2.886,12.265 2.856,12.71 2.896,13.158 2.917,13.393 2.918,13.393 2.678,13.345 2.205,13.25 1.777,13.067 1.426,12.709 1.397,13.055 1.301,13.196 0.994,13.349 0.679,13.509 0.332,13.573 0,13.688 c 0.923,0 1.845,0.004 2.767,-0.004 0.157,-10e-4 0.203,0.051 0.229,0.196 0.176,0.965 0.576,1.829 1.207,2.582 1.243,1.487 2.886,2.178 4.771,2.346 1.462,0.13 2.91,-0.008 4.335,-0.361 2.77,-0.688 4.97,-2.186 6.496,-4.625 0.067,-0.107 0.14,-0.137 0.262,-0.135 1.206,0.004 2.414,0.003 3.621,0.003 0.069,0 0.138,0 0.206,0 -0.229,-0.085 -0.461,-0.131 -0.681,-0.21 -0.365,-0.132 -0.757,-0.252 -0.744,-0.763 -0.122,0.098 -0.222,0.192 -0.335,0.266 -0.596,0.389 -1.263,0.451 -1.951,0.417 -0.122,-0.006 -0.09,-0.056 -0.056,-0.125 0.142,-0.284 0.316,-0.559 0.414,-0.858 l 0.001,-0.002 z M 13.782,9.96 c 0,-0.111 0.047,-0.137 0.146,-0.137 0.535,0.003 1.07,0.003 1.606,0 0.104,0 0.146,0.038 0.146,0.143 -0.002,0.543 -0.002,1.085 0,1.627 0,0.11 -0.054,0.138 -0.152,0.136 -0.266,-0.003 -0.53,-10e-4 -0.794,-10e-4 -0.265,0 -0.529,-0.003 -0.794,10e-4 -0.104,0.002 -0.162,-0.018 -0.161,-0.143 0.007,-0.543 0.006,-1.085 0.003,-1.626 l 0,0 z M 13.526,9.413 c 0,0.114 -0.046,0.154 -0.157,0.154 -0.536,-0.003 -1.071,-0.005 -1.607,0 -0.126,0.002 -0.143,-0.057 -0.142,-0.162 0.005,-0.264 0.002,-0.528 0.002,-0.792 0,-0.264 0.004,-0.529 -0.002,-0.793 -0.003,-0.112 0.029,-0.155 0.148,-0.154 0.528,0.005 1.058,0.005 1.587,0 0.118,-0.001 0.171,0.033 0.171,0.16 -0.005,0.529 -0.005,1.058 0,1.587 z M 11.622,6.449 c 0,-0.258 0.005,-0.515 -0.002,-0.772 -0.003,-0.117 0.021,-0.169 0.154,-0.167 0.528,0.007 1.057,0.006 1.585,0 0.127,-10e-4 0.165,0.045 0.164,0.166 -0.004,0.522 -0.004,1.044 0,1.566 10e-4,0.121 -0.036,0.169 -0.162,0.168 -0.528,-0.005 -1.057,-0.006 -1.586,0 -0.131,10e-4 -0.16,-0.049 -0.156,-0.167 0.007,-0.264 0.003,-0.529 0.003,-0.794 l 0,0 z m -0.002,3.54 c -10e-4,-0.118 0.024,-0.167 0.156,-0.166 0.528,0.006 1.057,0.006 1.585,10e-4 0.126,-10e-4 0.163,0.046 0.162,0.167 -0.004,0.521 -0.005,1.042 0,1.565 10e-4,0.13 -0.039,0.181 -0.175,0.176 -0.263,-0.009 -0.528,-0.002 -0.792,-0.002 -0.258,0 -0.516,-0.005 -0.773,0.002 -0.117,0.003 -0.168,-0.024 -0.166,-0.156 0.008,-0.528 0.006,-1.056 0.002,-1.584 L 11.62,9.989 Z m -2,-2.322 c 0.521,0.006 1.042,0.006 1.563,0 0.125,-10e-4 0.167,0.038 0.162,0.162 -0.008,0.264 -0.003,0.528 -0.003,0.791 0,0.264 -0.004,0.528 0.003,0.792 0.002,0.112 -0.032,0.155 -0.149,0.155 C 10.669,9.562 10.14,9.562 9.613,9.567 9.497,9.567 9.463,9.529 9.464,9.415 9.469,8.887 9.47,8.359 9.464,7.832 9.462,7.71 9.492,7.664 9.62,7.667 l 0,0 z m 1.722,3.129 c 0,0.264 -0.003,0.528 0.002,0.793 0.002,0.104 -0.035,0.142 -0.141,0.141 -0.536,-0.004 -1.071,-0.003 -1.606,-0.001 -0.095,0.001 -0.133,-0.03 -0.132,-0.128 0.003,-0.549 0.003,-1.098 0,-1.647 -10e-4,-0.096 0.032,-0.132 0.13,-0.131 0.535,0.003 1.07,0.004 1.605,-0.001 0.124,-0.002 0.146,0.054 0.144,0.159 -0.005,0.271 -0.002,0.542 -0.002,0.813 l 0,0.002 z M 7.445,7.667 c 0.534,0.004 1.069,0.004 1.604,0 0.107,-10e-4 0.139,0.042 0.137,0.145 -0.003,0.541 -0.003,1.082 0,1.624 C 9.188,9.531 9.154,9.569 9.057,9.568 8.516,9.566 7.975,9.565 7.434,9.568 7.313,9.568 7.308,9.503 7.308,9.413 7.311,9.149 7.31,8.884 7.31,8.621 7.31,8.35 7.313,8.08 7.308,7.809 7.305,7.706 7.337,7.666 7.445,7.667 Z M 7.471,9.823 C 7.736,9.83 8,9.826 8.265,9.826 c 0.259,0 0.516,0.004 0.773,-0.002 0.117,-0.003 0.151,0.04 0.149,0.153 -0.005,0.536 -0.005,1.071 0,1.607 C 9.189,11.705 9.139,11.731 9.031,11.73 8.509,11.726 7.986,11.725 7.464,11.731 7.336,11.732 7.304,11.688 7.307,11.567 7.311,11.039 7.313,10.509 7.305,9.981 7.304,9.848 7.351,9.819 7.471,9.823 l 0,0 z M 5.145,9.97 c 0,-0.121 0.049,-0.147 0.157,-0.147 0.522,0.004 1.044,0.005 1.566,0 0.129,-0.001 0.159,0.044 0.158,0.165 -0.005,0.529 -0.007,1.057 0,1.585 0.002,0.13 -0.047,0.161 -0.165,0.158 -0.258,-0.007 -0.516,-0.002 -0.772,-0.002 -0.256,0 -0.516,-0.004 -0.772,0.001 -0.114,0.002 -0.172,-0.02 -0.17,-0.154 0.006,-0.535 0.005,-1.071 0,-1.605 l -0.002,0 z m 14.228,3.872 c -0.474,0.705 -1.011,1.358 -1.643,1.923 -0.771,0.692 -1.634,1.245 -2.579,1.669 -0.998,0.449 -2.044,0.733 -3.126,0.895 -0.527,0.079 -1.06,0.112 -1.592,0.146 l 0,0 C 9.108,18.529 7.813,18.402 6.584,17.848 5.86,17.52 5.236,17.051 4.666,16.503 4.64,16.478 4.6,16.456 4.602,16.387 c 0.659,0.042 1.316,0.034 1.974,-0.004 0.508,-0.045 1.009,-0.119 1.503,-0.247 l 0,0 0,0 C 8.142,16.114 8.207,16.093 8.27,16.071 8.372,16.036 8.436,15.972 8.402,15.859 8.369,15.743 8.278,15.731 8.174,15.763 7.763,15.897 7.342,15.976 6.91,16.017 6.569,16.049 6.227,16.097 5.884,16.081 5.398,16.097 4.912,16.085 4.427,16.051 4.352,16.046 4.305,16.019 4.262,15.959 3.798,15.306 3.488,14.589 3.345,13.799 3.326,13.691 3.37,13.687 3.448,13.687 c 0.27,0.003 0.54,0.004 0.81,0.006 0.061,-10e-4 0.121,-0.006 0.183,-0.006 4.286,0 8.571,0 12.856,0 0.061,0 0.121,0.004 0.183,0.006 0.603,-10e-4 1.206,-10e-4 1.809,-0.008 0.15,-0.001 0.162,0.042 0.084,0.158 l 0,-10e-4 z m 0.393,-0.649 c -0.06,0.108 -0.117,0.136 -0.24,0.1 -0.268,-0.075 -0.535,-0.149 -0.763,-0.316 -0.08,-0.058 -0.115,-0.043 -0.182,0.02 -0.147,0.14 -0.323,0.243 -0.53,0.279 -0.451,0.171 -0.926,0.195 -1.398,0.197 -0.563,0.002 -1.122,-0.053 -1.669,-0.196 -0.345,-0.091 -0.704,-0.166 -0.946,-0.468 -0.055,-0.067 -0.079,-0.006 -0.108,0.02 -0.646,0.574 -1.434,0.662 -2.247,0.629 C 11.227,13.44 10.786,13.338 10.375,13.126 10.204,13.039 10.069,12.841 9.914,12.813 9.778,12.788 9.642,13.024 9.465,13.096 9.01,13.286 8.53,13.372 8.047,13.428 7.399,13.5 6.75,13.499 6.108,13.359 5.807,13.293 5.514,13.205 5.292,12.978 5.221,12.905 5.184,12.945 5.124,12.982 4.834,13.164 4.52,13.281 4.177,13.318 3.922,13.401 3.657,13.399 3.395,13.405 3.323,13.407 3.288,13.382 3.275,13.303 3.218,12.926 3.245,12.547 3.253,12.168 c 0.003,-0.1 0.067,-0.118 0.152,-0.116 0.231,0.005 0.461,0.005 0.691,0.007 0.088,-0.002 0.176,-0.006 0.264,-0.006 4.197,0 8.394,10e-4 12.591,-0.002 0.723,0 1.428,-0.112 2.1,-0.399 0.256,-0.11 0.5,-0.242 0.725,-0.407 0.044,-0.032 0.132,-0.061 0.038,-0.15 -0.36,-0.341 -0.536,-0.779 -0.598,-1.26 -0.078,-0.616 -0.024,-1.218 0.286,-1.774 0.121,-0.218 0.128,-0.219 0.311,-0.058 0.563,0.499 0.981,1.083 1.067,1.856 0.012,0.107 0.011,0.216 0.008,0.325 -0.002,0.047 0,0.079 0.056,0.082 0.812,-0.367 1.627,-0.392 2.452,-0.042 0.163,0.069 0.151,0.141 0.068,0.269 -0.404,0.631 -1.005,0.947 -1.72,1.072 -0.338,0.06 -0.681,0.108 -1.027,0.048 -0.154,-0.027 -0.239,0.02 -0.298,0.182 -0.176,0.483 -0.402,0.943 -0.65,1.395 l 0,0.003 z"
         inkscape:connector-curvature="0"
         style="fill:#999999" />
      <path
         id="path3415"
         d="m 5.316,11.414 c 0.001,0.049 -0.017,0.122 0.069,0.114 0.066,-0.005 0.055,-0.068 0.055,-0.112 0.002,-0.425 0.002,-0.851 0,-1.276 0,-0.05 0.013,-0.122 -0.07,-0.114 -0.068,0.005 -0.054,0.068 -0.054,0.112 -0.002,0.209 -10e-4,0.419 -10e-4,0.628 0,0.215 -0.001,0.431 10e-4,0.648 z"
         inkscape:connector-curvature="0"
         style="fill:#999999" />
      <path
         id="path3417"
         d="m 6.166,11.417 c 0,0.044 -0.011,0.105 0.058,0.11 0.084,0.006 0.07,-0.064 0.072,-0.114 10e-4,-0.426 10e-4,-0.852 0,-1.279 0,-0.044 0.01,-0.105 -0.058,-0.11 -0.084,-0.006 -0.072,0.064 -0.072,0.114 -0.001,0.21 -0.001,0.419 -0.001,0.629 0,0.216 0,0.433 0.001,0.65 l 0,0 z"
         inkscape:connector-curvature="0"
         style="fill:#999999" />
      <path
         id="path3419"
         d="m 5.659,11.53 c 0.068,0.002 0.065,-0.057 0.065,-0.104 0.002,-0.216 10e-4,-0.433 10e-4,-0.649 0,-0.216 0.001,-0.433 -10e-4,-0.649 0,-0.046 0.004,-0.104 -0.063,-0.105 -0.068,-10e-4 -0.066,0.057 -0.066,0.103 0,0.433 0,0.866 0,1.298 0.001,0.046 -0.002,0.104 0.064,0.106 z"
         inkscape:connector-curvature="0"
         style="fill:#999999" />
      <path
         id="path3421"
         d="m 10.272,10 c -0.099,-0.005 -0.074,0.079 -0.075,0.133 -0.002,0.427 -0.002,0.854 0,1.282 0,0.054 -0.028,0.137 0.07,0.138 0.086,10e-4 0.085,-0.072 0.085,-0.133 10e-4,-0.21 0,-0.42 0,-0.63 0,-0.217 10e-4,-0.434 0,-0.651 0,-0.061 0.004,-0.134 -0.08,-0.139 l 0,0 z"
         inkscape:connector-curvature="0"
         style="fill:#999999" />
      <path
         id="path3423"
         d="m 5.945,11.53 c 0.066,0 0.064,-0.058 0.064,-0.104 10e-4,-0.21 10e-4,-0.419 10e-4,-0.629 0,-0.224 0.001,-0.447 -10e-4,-0.67 0,-0.047 0.003,-0.105 -0.064,-0.105 -0.068,0 -0.064,0.058 -0.064,0.104 -0.001,0.433 -0.001,0.866 0,1.298 0,0.047 -0.004,0.104 0.064,0.106 l 0,0 z"
         inkscape:connector-curvature="0"
         style="fill:#999999" />
      <path
         id="path3425"
         d="m 11.116,10.023 c -0.083,0 -0.066,0.071 -0.067,0.121 -0.003,0.21 -10e-4,0.42 -10e-4,0.629 0,0.217 -10e-4,0.434 10e-4,0.649 0,0.046 -0.006,0.104 0.062,0.107 0.069,0.003 0.067,-0.055 0.067,-0.101 0,-0.433 0,-0.866 0,-1.299 0,-0.045 0.005,-0.106 -0.062,-0.106 l 0,0 z"
         inkscape:connector-curvature="0"
         style="fill:#999999" />
      <path
         id="path3427"
         d="m 15.155,11.554 c 0.072,-0.002 0.079,-0.063 0.079,-0.119 0.002,-0.441 0.002,-0.881 0,-1.322 0,-0.058 -0.013,-0.114 -0.085,-0.114 -0.084,0 -0.068,0.068 -0.068,0.12 -0.002,0.217 -10e-4,0.434 -10e-4,0.65 0,0.217 -0.002,0.434 10e-4,0.651 0,0.055 -0.025,0.137 0.074,0.134 z"
         inkscape:connector-curvature="0"
         style="fill:#999999" />
      <path
         id="path3429"
         d="m 8.956,9.374 c 0.068,0 0.061,-0.061 0.061,-0.105 0.001,-0.223 0.001,-0.445 0.001,-0.667 0,-0.222 0,-0.445 -0.001,-0.667 0,-0.04 0.003,-0.087 -0.052,-0.093 -0.07,-0.008 -0.073,0.045 -0.073,0.094 0,0.445 0,0.891 0,1.335 0,0.045 -0.003,0.103 0.064,0.103 l 0,0 z"
         inkscape:connector-curvature="0"
         style="fill:#999999" />
      <path
         id="path3431"
         d="m 10.922,10.148 c 0,-0.066 0.008,-0.15 -0.091,-0.148 -0.092,10e-4 -0.067,0.085 -0.067,0.14 -0.002,0.425 -0.002,0.851 0,1.275 0,0.055 -0.023,0.138 0.071,0.138 0.099,0 0.087,-0.084 0.087,-0.15 0.002,-0.209 0.002,-0.418 0.002,-0.628 0,-0.21 0,-0.418 -0.002,-0.627 l 0,0 z"
         inkscape:connector-curvature="0"
         style="fill:#999999" />
      <path
         id="path3433"
         d="m 8.891,10.766 c 0,0.216 -0.002,0.431 10e-4,0.647 0,0.049 -0.017,0.121 0.066,0.119 0.069,-10e-4 0.059,-0.064 0.059,-0.107 0.001,-0.431 0.001,-0.863 0,-1.294 0,-0.043 0.013,-0.105 -0.057,-0.109 -0.084,-0.004 -0.068,0.068 -0.069,0.118 -0.002,0.209 0,0.418 0,0.626 l 0,0 z"
         inkscape:connector-curvature="0"
         style="fill:#999999" />
      <path
         id="path3435"
         d="m 8.607,9.271 c 0,0.047 -0.002,0.104 0.065,0.103 C 8.739,9.373 8.735,9.315 8.735,9.269 8.736,9.053 8.736,8.837 8.736,8.62 c 0,-0.223 0,-0.445 -0.001,-0.668 0,-0.045 0.011,-0.105 -0.057,-0.11 C 8.595,7.833 8.607,7.903 8.606,7.954 8.605,8.393 8.605,8.832 8.607,9.271 l 0,0 z"
         inkscape:connector-curvature="0"
         style="fill:#999999" />
      <path
         id="path3437"
         d="m 10.549,10 c -0.096,0.005 -0.064,0.088 -0.065,0.142 -0.003,0.21 -0.002,0.42 -0.002,0.63 0,0.217 -10e-4,0.434 0.001,0.651 10e-4,0.055 -0.022,0.137 0.078,0.13 0.07,-0.005 0.077,-0.065 0.077,-0.122 0,-0.434 0,-0.868 0,-1.302 0,-0.062 -0.004,-0.134 -0.089,-0.129 z"
         inkscape:connector-curvature="0"
         style="fill:#999999" />
      <path
         id="path3439"
         d="m 15.426,11.554 c 0.085,0.006 0.094,-0.061 0.094,-0.126 0.001,-0.217 0,-0.434 0,-0.65 0,-0.217 0,-0.434 0,-0.651 0,-0.064 -0.006,-0.132 -0.091,-0.128 -0.081,0.004 -0.063,0.076 -0.063,0.125 -0.002,0.434 -0.002,0.868 0,1.302 0,0.051 -0.018,0.122 0.06,0.128 z"
         inkscape:connector-curvature="0"
         style="fill:#999999" />
      <path
         id="path3441"
         d="M 7.534,9.397 C 7.605,9.401 7.624,9.348 7.624,9.289 7.625,8.843 7.625,8.396 7.624,7.951 7.624,7.895 7.614,7.837 7.54,7.837 7.455,7.837 7.471,7.905 7.471,7.955 7.469,8.17 7.47,8.387 7.47,8.604 c 0,0.224 -10e-4,0.447 0.001,0.67 0,0.049 -0.018,0.119 0.063,0.123 l 0,0 z"
         inkscape:connector-curvature="0"
         style="fill:#999999" />
      <path
         id="path3443"
         d="M 7.816,9.397 C 7.901,9.403 7.91,9.336 7.91,9.272 7.91,8.832 7.91,8.391 7.909,7.952 7.909,7.895 7.899,7.838 7.825,7.837 7.742,7.835 7.752,7.899 7.752,7.952 7.75,8.168 7.751,8.385 7.751,8.601 c 0,0.224 -0.001,0.447 10e-4,0.671 0,0.051 -0.015,0.121 0.064,0.125 z"
         inkscape:connector-curvature="0"
         style="fill:#999999" />
      <path
         id="path3445"
         d="m 8.322,9.271 c 0,0.047 -0.002,0.104 0.066,0.103 0.067,-0.001 0.063,-0.06 0.063,-0.105 10e-4,-0.224 0,-0.446 0,-0.669 0,-0.216 10e-4,-0.433 0,-0.648 0,-0.044 0.012,-0.105 -0.057,-0.11 -0.083,-0.009 -0.072,0.061 -0.072,0.112 -10e-4,0.439 -10e-4,0.878 0,1.317 z"
         inkscape:connector-curvature="0"
         style="fill:#999999" />
      <path
         id="path3447"
         d="m 8.1,9.373 c 0.083,0.003 0.066,-0.071 0.068,-0.121 0.001,-0.216 0,-0.432 0,-0.648 0,-0.216 0.001,-0.432 0,-0.648 0,-0.05 0.012,-0.12 -0.073,-0.115 -0.067,0.004 -0.057,0.064 -0.057,0.109 -10e-4,0.432 -10e-4,0.865 0,1.297 0,0.049 -0.017,0.122 0.062,0.126 l 0,0 z"
         inkscape:connector-curvature="0"
         style="fill:#999999" />
      <path
         id="path3449"
         d="m 9.588,15.257 c -0.005,-0.295 -0.241,-0.52 -0.539,-0.513 -0.286,0.009 -0.506,0.24 -0.504,0.53 0.003,0.282 0.239,0.516 0.521,0.513 0.298,-0.002 0.526,-0.233 0.522,-0.53 z M 9.076,15.64 C 8.87,15.644 8.701,15.486 8.693,15.28 8.685,15.079 8.832,14.908 9.029,14.897 c 0.07,-0.004 0.168,-0.038 0.118,0.116 -0.041,0.12 0.048,0.214 0.166,0.167 0.139,-0.055 0.122,0.019 0.125,0.101 -0.004,0.198 -0.163,0.355 -0.362,0.359 z"
         inkscape:connector-curvature="0"
         style="fill:#999999" />
    </g>
  </g>
</svg>
